<?xml version="1.0" encoding="utf-8"?>
<svg version="1.1" xmlns:xlink="http://www.w3.org/1999/xlink" width="130px" height="131px" xmlns="http://www.w3.org/2000/svg">
  <g transform="matrix(1 0 0 1 -38 -67 )">
    <path d="M 103 67  C 139.4 67  168 95.82  168 132.5  C 168 169.18  139.4 198  103 198  C 66.6 198  38 169.18  38 132.5  C 38 95.82  66.6 67  103 67  Z " fill-rule="nonzero" fill="#ffffff" stroke="none" />
    <path d="M 103 67.5  C 139.12 67.5  167.5 96.1  167.5 132.5  C 167.5 168.9  139.12 197.5  103 197.5  C 66.88 197.5  38.5 168.9  38.5 132.5  C 38.5 96.1  66.88 67.5  103 67.5  Z " stroke-width="1" stroke="#797979" fill="none" />
  </g>
</svg>