<?xml version="1.0" encoding="utf-8"?>
<svg version="1.1" xmlns:xlink="http://www.w3.org/1999/xlink" width="57px" height="46px" xmlns="http://www.w3.org/2000/svg">
  <g transform="matrix(1 0 0 1 -1133 -26 )">
    <path d="M 34.95703125 28.2109375  C 37.960036057692314 25.787459935897434  39.46153846153846 22.870993589743588  39.46153846153846 19.461538461538463  C 39.46153846153846 16.05208333333333  37.960036057692314 13.135616987179485  34.95703125 10.712139423076923  C 31.954026442307693 8.288661858974356  28.34014423076923 7.0769230769230775  24.115384615384617 7.0769230769230775  C 19.890625000000004 7.0769230769230775  16.27674278846154 8.288661858974356  13.27373798076923 10.712139423076923  C 10.270733173076923 13.135616987179485  8.76923076923077 16.05208333333333  8.76923076923077 19.461538461538463  C 8.76923076923077 22.870993589743588  10.270733173076923 25.787459935897434  13.27373798076923 28.2109375  C 16.27674278846154 30.634415064102555  19.890625000000004 31.846153846153847  24.115384615384617 31.846153846153847  C 28.34014423076923 31.846153846153847  31.954026442307693 30.634415064102555  34.95703125 28.2109375  Z M 55.73257211538462 39.97355769230769  C 56.57752403846154 40.65544871794872  57 41.48477564102564  57 42.46153846153847  C 57 43.419871794871796  56.566105769230774 44.24919871794872  55.69831730769231 44.94951923076923  C 54.830528846153854 45.649839743589745  53.80288461538462 46  52.61538461538462 46  C 51.38221153846154 46  50.35456730769231 45.649839743589745  49.53245192307692 44.94951923076923  L 37.78305288461538 35.49519230769231  C 33.6953125 37.78044871794872  29.13942307692308 38.92307692307692  24.115384615384617 38.92307692307692  C 20.849759615384617 38.92307692307692  17.72686298076923 38.41165865384615  14.74669471153846 37.38882211538462  C 11.766526442307692 36.36598557692308  9.197415865384615 34.98377403846153  7.039362980769231 33.2421875  C 4.881310096153846 31.500600961538463  3.168569711538462 29.427283653846153  1.9011418269230769 27.022235576923077  C 0.6337139423076923 24.6171875  0 22.096955128205124  0 19.461538461538463  C 0 16.82612179487179  0.6337139423076923 14.305889423076923  1.9011418269230769 11.900841346153845  C 3.168569711538462 9.495793269230768  4.881310096153846 7.4224759615384635  7.039362980769231 5.6808894230769225  C 9.197415865384615 3.939302884615387  11.766526442307692 2.5570913461538454  14.74669471153846 1.5342548076923093  C 17.72686298076923 0.511418269230768  20.849759615384617 0  24.115384615384617 0  C 27.381009615384617 0  30.50390625 0.511418269230768  33.48407451923077 1.5342548076923093  C 36.46424278846154 2.5570913461538454  39.03335336538462 3.939302884615387  41.19140625 5.6808894230769225  C 43.34945913461538 7.4224759615384635  45.06219951923077 9.495793269230768  46.32962740384615 11.900841346153845  C 47.59705528846154 14.305889423076923  48.23076923076923 16.82612179487179  48.23076923076923 19.461538461538463  C 48.23076923076923 23.51602564102564  46.814903846153854 27.19270833333333  43.98317307692308 30.491586538461537  L 55.73257211538462 39.97355769230769  Z " fill-rule="nonzero" fill="#000000" stroke="none" transform="matrix(1 0 0 1 1133 26 )" />
  </g>
</svg>